REM DIRINDEX 1\2,1\3,1\4,1\5
REM DIRNAME "folder01","folder02","folder03","folder04","folder05"
TITLE ""
FILE "1Q_t_2078-2087.mp3" MP3
  TRACK 01 AUDIO
    TITLE "3:cjc172_7245"
    INDEX 01 00:00:00
  TRACK 02 AUDIO
    TITLE "0:"
    INDEX 01 00:01:14
  TRACK 03 AUDIO
    TITLE "4:cjc172_7246"
    INDEX 01 00:01:25
  TRACK 04 AUDIO
    TITLE "0:"
    INDEX 01 00:03:50
  TRACK 05 AUDIO
    TITLE "5:cjc172_7247"
    INDEX 01 00:03:56
  TRACK 06 AUDIO
    TITLE "0:"
    INDEX 01 00:07:65
  TRACK 07 AUDIO
    TITLE "3:cjc172_7248"
    INDEX 01 00:08:37
  TRACK 08 AUDIO
    TITLE "0:"
    INDEX 01 00:09:45
  TRACK 09 AUDIO
    TITLE "4:cjc172_7249"
    INDEX 01 00:09:54
  TRACK 10 AUDIO
    TITLE "0:"
    INDEX 01 00:12:08
  TRACK 11 AUDIO
    TITLE "5:cjc172_7250"
    INDEX 01 00:12:13
  TRACK 12 AUDIO
    TITLE "0:"
    INDEX 01 00:15:69
  TRACK 13 AUDIO
    TITLE "3:cjc172_7251"
    INDEX 01 00:16:41
  TRACK 14 AUDIO
    TITLE "0:"
    INDEX 01 00:17:71
  TRACK 15 AUDIO
    TITLE "4:cjc172_7252"
    INDEX 01 00:18:04
  TRACK 16 AUDIO
    TITLE "0:"
    INDEX 01 00:20:15
  TRACK 17 AUDIO
    TITLE "5:cjc172_7253"
    INDEX 01 00:20:25
  TRACK 18 AUDIO
    TITLE "0:"
    INDEX 01 00:24:32
  TRACK 19 AUDIO
    TITLE "3:cjc172_7254"
    INDEX 01 00:25:00
  TRACK 20 AUDIO
    TITLE "0:"
    INDEX 01 00:26:12
  TRACK 21 AUDIO
    TITLE "4:cjc172_7255"
    INDEX 01 00:26:21
  TRACK 22 AUDIO
    TITLE "0:"
    INDEX 01 00:27:50
  TRACK 23 AUDIO
    TITLE "5:cjc172_7256"
    INDEX 01 00:27:58
  TRACK 24 AUDIO
    TITLE "0:"
    INDEX 01 00:31:66
  TRACK 25 AUDIO
    TITLE "3:cjc172_7257"
    INDEX 01 00:32:46
  TRACK 26 AUDIO
    TITLE "0:"
    INDEX 01 00:33:63
  TRACK 27 AUDIO
    TITLE "4:cjc172_7258"
    INDEX 01 00:33:74
  TRACK 28 AUDIO
    TITLE "0:"
    INDEX 01 00:35:24
  TRACK 29 AUDIO
    TITLE "5:cjc172_7259"
    INDEX 01 00:35:32
  TRACK 30 AUDIO
    TITLE "0:"
    INDEX 01 00:41:45
  TRACK 31 AUDIO
    TITLE "3:cjc172_7260"
    INDEX 01 00:42:19
  TRACK 32 AUDIO
    TITLE "0:"
    INDEX 01 00:43:10
  TRACK 33 AUDIO
    TITLE "4:cjc172_7261"
    INDEX 01 00:43:20
  TRACK 34 AUDIO
    TITLE "0:"
    INDEX 01 00:44:35
  TRACK 35 AUDIO
    TITLE "5:cjc172_7262"
    INDEX 01 00:44:43
  TRACK 36 AUDIO
    TITLE "0:"
    INDEX 01 00:49:40
  TRACK 37 AUDIO
    TITLE "3:cjc172_7263"
    INDEX 01 00:50:12
  TRACK 38 AUDIO
    TITLE "0:"
    INDEX 01 00:51:29
  TRACK 39 AUDIO
    TITLE "4:cjc172_7264"
    INDEX 01 00:51:43
  TRACK 40 AUDIO
    TITLE "0:"
    INDEX 01 00:53:57
  TRACK 41 AUDIO
    TITLE "5:cjc172_7265"
    INDEX 01 00:53:65
  TRACK 42 AUDIO
    TITLE "0:"
    INDEX 01 00:58:00
  TRACK 43 AUDIO
    TITLE "3:cjc172_7266"
    INDEX 01 00:58:47
  TRACK 44 AUDIO
    TITLE "0:"
    INDEX 01 00:59:56
  TRACK 45 AUDIO
    TITLE "4:cjc172_7267"
    INDEX 01 00:59:64
  TRACK 46 AUDIO
    TITLE "0:"
    INDEX 01 01:02:49
  TRACK 47 AUDIO
    TITLE "5:cjc172_7268"
    INDEX 01 01:02:56
  TRACK 48 AUDIO
    TITLE "0:"
    INDEX 01 01:06:72
  TRACK 49 AUDIO
    TITLE "3:cjc172_7269"
    INDEX 01 01:07:46
  TRACK 50 AUDIO
    TITLE "0:"
    INDEX 01 01:08:43
  TRACK 51 AUDIO
    TITLE "4:cjc172_7270"
    INDEX 01 01:08:53
  TRACK 52 AUDIO
    TITLE "0:"
    INDEX 01 01:09:62
  TRACK 53 AUDIO
    TITLE "5:cjc172_7271"
    INDEX 01 01:09:70
  TRACK 54 AUDIO
    TITLE "0:"
    INDEX 01 01:14:56
  TRACK 55 AUDIO
    TITLE "3:cjc172_7272"
    INDEX 01 01:15:24
  TRACK 56 AUDIO
    TITLE "0:"
    INDEX 01 01:16:37
  TRACK 57 AUDIO
    TITLE "4:cjc172_7273"
    INDEX 01 01:16:45
  TRACK 58 AUDIO
    TITLE "0:"
    INDEX 01 01:17:64
  TRACK 59 AUDIO
    TITLE "5:cjc172_7274"
    INDEX 01 01:17:70
  TRACK 60 AUDIO
    TITLE "0:"
    INDEX 01 01:21:40
